HIERARCHY
ROOT joint_Root
{
	OFFSET 0.0 0.0 0.0
	CHANNELS 6 Xposition Yposition Zposition Zrotation Xrotation Yrotation 
	JOINT Hips
	{
		OFFSET 4.5925 91.4895 -427.239
		CHANNELS 6 Xposition Yposition Zposition Zrotation Xrotation Yrotation 
		JOINT Spine
		{
			OFFSET 15.7357 0.0 0.0
			CHANNELS 6 Xposition Yposition Zposition Zrotation Xrotation Yrotation 
			JOINT Chest
			{
				OFFSET 8.98455 -0.406207 0.0
				CHANNELS 6 Xposition Yposition Zposition Zrotation Xrotation Yrotation 
				JOINT Neck
				{
					OFFSET 16.3773 0.0 0.0
					CHANNELS 6 Xposition Yposition Zposition Zrotation Xrotation Yrotation 
					JOINT Head
					{
						OFFSET 6.45672 0.0 0.0
						CHANNELS 6 Xposition Yposition Zposition Zrotation Xrotation Yrotation 
						End Site
						{
							OFFSET 0.0 0.0 0.0
						}
					}
				}
				JOINT Shoulder_L
				{
					OFFSET 12.9942 -0.242716 4.98039
					CHANNELS 6 Xposition Yposition Zposition Zrotation Xrotation Yrotation 
					JOINT UpperArm_L
					{
						OFFSET 5.34809 0.0 0.0
						CHANNELS 6 Xposition Yposition Zposition Zrotation Xrotation Yrotation 
						JOINT LowerArm_L
						{
							OFFSET 24.3286 1.87007e-05 0.0
							CHANNELS 6 Xposition Yposition Zposition Zrotation Xrotation Yrotation 
							JOINT Hand_L
							{
								OFFSET 22.2916 0.0 0.0
								CHANNELS 6 Xposition Yposition Zposition Zrotation Xrotation Yrotation 
								End Site
								{
									OFFSET 0.0 0.0 0.0
								}
							}
						}
					}
				}
				JOINT Shoulder_R
				{
					OFFSET 12.9945 -0.242716 -4.98039
					CHANNELS 6 Xposition Yposition Zposition Zrotation Xrotation Yrotation 
					JOINT UpperArm_R
					{
						OFFSET -5.34813 0.0 0.0
						CHANNELS 6 Xposition Yposition Zposition Zrotation Xrotation Yrotation 
						JOINT LowerArm_R
						{
							OFFSET -24.3289 0.000322201 0.0
							CHANNELS 6 Xposition Yposition Zposition Zrotation Xrotation Yrotation 
							JOINT Hand_R
							{
								OFFSET -22.2915 -0.000108084 0.0
								CHANNELS 6 Xposition Yposition Zposition Zrotation Xrotation Yrotation 
								End Site
								{
									OFFSET 0.0 0.0 0.0
								}
							}
						}
					}
				}
			}
		}
		JOINT UpperLeg_L
		{
			OFFSET -2.19248 -6.46944 0.0
			CHANNELS 6 Xposition Yposition Zposition Zrotation Xrotation Yrotation 
			JOINT LowerLeg_L
			{
				OFFSET 39.0811 0.0 -1.23785e-05
				CHANNELS 6 Xposition Yposition Zposition Zrotation Xrotation Yrotation 
				JOINT Foot_L
				{
					OFFSET 40.9854 0.0 -1.26872e-05
					CHANNELS 6 Xposition Yposition Zposition Zrotation Xrotation Yrotation 
					JOINT Toes_L
					{
						OFFSET 11.7543 0.0 0.0
						CHANNELS 6 Xposition Yposition Zposition Zrotation Xrotation Yrotation 
						End Site
						{
							OFFSET 0.0 0.0 0.0
						}
					}
				}
			}
		}
		JOINT UpperLeg_R
		{
			OFFSET -2.19251 6.46944 0.0
			CHANNELS 6 Xposition Yposition Zposition Zrotation Xrotation Yrotation 
			JOINT LowerLeg_R
			{
				OFFSET -39.0811 -0.00228153 -0.0401928
				CHANNELS 6 Xposition Yposition Zposition Zrotation Xrotation Yrotation 
				JOINT Foot_R
				{
					OFFSET -40.9854 0.0 0.0
					CHANNELS 6 Xposition Yposition Zposition Zrotation Xrotation Yrotation 
					JOINT Toes_R
					{
						OFFSET -11.7543 0.0 0.0
						CHANNELS 6 Xposition Yposition Zposition Zrotation Xrotation Yrotation 
						End Site
						{
							OFFSET 0.0 0.0 0.0
						}
					}
				}
			}
		}
	}
}
MOTION
Frames:	5
Frame Time:	0.0333333
0.000000 0.000000 0.000000 0.000000 0.000000 -0.000000 -0.762303 90.387500 -4.793130 89.308700 -3.555150 12.316900 15.735700 0.000005 -0.000001 88.799600 75.702400 -89.006300 8.984550 -0.406207 -0.000000 20.822700 -0.607996 -0.303091 16.377300 -0.000001 -0.000001 5.476800 -3.987880 1.916400 6.456720 -0.000001 -0.000000 -8.357480 -3.149530 0.438890 12.994200 -0.242716 4.980390 -91.296800 6.779600 -79.144600 5.348090 -0.000007 -0.000001 -50.792500 37.512700 -35.746800 24.328600 0.000019 0.000005 9.054480 19.888300 -25.100400 22.291600 -0.000001 0.000005 9.655860 5.255740 1.280430 12.994500 -0.242716 -4.980390 89.208000 10.680700 -85.734300 -5.348130 -0.000001 -0.000004 -53.622600 35.900700 -28.147000 -24.328900 0.000322 -0.000009 1.686270 4.237420 -21.735900 -22.291500 -0.000108 -0.000004 16.535300 5.395780 -2.801000 -2.192480 -6.469440 -0.000000 -174.370000 -10.570800 -2.483350 39.081100 -0.000007 -0.000012 -0.185051 0.273031 34.128300 40.985400 -0.000006 -0.000013 0.213530 5.418410 -69.157200 11.754300 -0.000000 0.000003 -0.000064 -0.000698 -16.604600 -2.192510 6.469440 -0.000001 175.077000 18.303800 178.456000 -39.081100 -0.002282 -0.040193 -0.159333 0.244875 33.589200 -40.985400 0.000008 0.000006 4.246960 12.155100 -69.716300 -11.754300 -0.000006 -0.000006 -0.003705 -0.048335 -18.539100
0.000000 0.000000 0.000000 0.000000 0.000000 -0.000000 -0.749662 90.384500 -4.804110 89.337400 -3.566730 12.355200 15.735700 0.000005 -0.000001 88.822900 75.701300 -89.020300 8.984550 -0.406207 -0.000000 20.825000 -0.595688 -0.286878 16.377300 -0.000001 -0.000001 5.457840 -4.027620 1.961140 6.456720 -0.000001 -0.000000 -8.429160 -3.188050 0.417059 12.994200 -0.242716 4.980390 -91.309400 6.780540 -79.043300 5.348090 -0.000007 -0.000001 -50.830000 37.167600 -35.591800 24.328600 0.000019 0.000005 9.426700 19.666000 -26.259000 22.291600 -0.000001 0.000005 9.388570 5.262750 1.093290 12.994500 -0.242716 -4.980390 89.193200 10.692400 -85.659600 -5.348130 -0.000001 -0.000004 -53.664900 35.845800 -28.091100 -24.328900 0.000322 -0.000009 1.681340 4.232840 -21.699600 -22.291500 -0.000108 -0.000004 16.505800 5.396090 -2.810740 -2.192480 -6.469440 -0.000000 -174.398000 -10.584900 -2.463990 39.081100 -0.000007 -0.000012 -0.184827 0.272667 34.131700 40.985400 -0.000006 -0.000013 0.219732 5.412920 -69.142800 11.754300 -0.000000 0.000003 -0.000057 -0.000637 -16.602200 -2.192510 6.469440 -0.000001 175.021000 18.295500 178.476000 -39.081100 -0.002282 -0.040193 -0.163332 0.250731 33.606600 -40.985400 0.000008 0.000006 4.160240 12.178300 -69.694300 -11.754300 -0.000006 -0.000006 -0.003740 -0.048710 -18.554400
0.000000 0.000000 0.000000 0.000000 0.000000 -0.000000 -0.739991 90.386700 -4.824440 89.326500 -3.548970 12.385900 15.735700 0.000005 -0.000001 88.896700 75.718500 -89.062800 8.984550 -0.406207 -0.000000 20.791600 -0.555534 -0.231460 16.377300 -0.000001 -0.000001 5.499950 -4.047810 2.002760 6.456720 -0.000001 -0.000000 -8.489870 -3.246280 0.430599 12.994200 -0.242716 4.980390 -91.311100 6.740490 -78.965900 5.348090 -0.000007 -0.000001 -50.846100 36.740800 -35.404300 24.328600 0.000019 0.000005 9.863240 19.197600 -27.867600 22.291600 -0.000001 0.000005 9.427360 5.266800 0.984545 12.994500 -0.242716 -4.980390 89.183900 10.674000 -85.602000 -5.348130 -0.000001 -0.000004 -53.758100 35.776600 -27.922800 -24.328900 0.000322 -0.000009 1.677140 4.217560 -21.721400 -22.291500 -0.000108 -0.000004 16.471800 5.395920 -2.805190 -2.192480 -6.469440 -0.000000 -174.385000 -10.627500 -2.434330 39.081100 -0.000007 -0.000012 -0.185109 0.273093 34.130700 40.985400 -0.000006 -0.000013 0.238555 5.424270 -69.139500 11.754300 -0.000000 0.000003 -0.000065 -0.000706 -16.604900 -2.192510 6.469440 -0.000001 175.020000 18.315100 178.504000 -39.081100 -0.002282 -0.040193 -0.160544 0.246634 33.596000 -40.985400 0.000008 0.000006 4.183300 12.175600 -69.683200 -11.754300 -0.000006 -0.000006 -0.003695 -0.048227 -18.534700
0.000000 0.000000 0.000000 0.000000 0.000000 -0.000000 -0.735974 90.385100 -4.865110 89.321700 -3.495690 12.410400 15.735700 0.000005 -0.000001 88.902800 75.740900 -89.041100 8.984550 -0.406207 -0.000000 20.747000 -0.548578 -0.177100 16.377300 -0.000001 -0.000001 5.567500 -4.065790 2.084380 6.456720 -0.000001 -0.000000 -8.533590 -3.265650 0.439309 12.994200 -0.242716 4.980390 -91.320300 6.706500 -78.835700 5.348090 -0.000007 -0.000001 -50.973300 36.018400 -35.161500 24.328600 0.000019 0.000005 10.489500 18.764800 -29.923200 22.291600 -0.000001 0.000005 9.467310 5.270300 0.889973 12.994500 -0.242716 -4.980390 89.181000 10.639800 -85.572900 -5.348130 -0.000001 -0.000004 -53.847200 35.709600 -27.776300 -24.328900 0.000322 -0.000009 1.634310 4.106640 -21.736000 -22.291500 -0.000108 -0.000004 16.301700 5.395560 -2.793440 -2.192480 -6.469440 -0.000000 -174.404000 -10.547900 -2.466150 39.081100 -0.000007 -0.000012 -0.181577 0.267676 34.151100 40.985400 -0.000006 -0.000013 0.241513 5.416880 -69.111700 11.754300 -0.000000 0.000003 -0.000061 -0.000669 -16.603500 -2.192510 6.469440 -0.000001 174.999000 18.395900 178.503000 -39.081100 -0.002282 -0.040193 -0.162504 0.249516 33.603300 -40.985400 0.000008 0.000006 4.164570 12.217300 -69.652000 -11.754300 -0.000006 -0.000006 -0.003702 -0.048305 -18.537900
0.000000 0.000000 0.000000 0.000000 0.000000 -0.000000 -0.728579 90.379800 -4.892290 89.323600 -3.469020 12.468500 15.735700 0.000005 -0.000001 89.023400 75.757700 -89.141300 8.984550 -0.406207 -0.000000 20.714400 -0.487133 -0.147558 16.377300 -0.000001 -0.000001 5.677530 -4.095950 2.176300 6.456720 -0.000001 -0.000000 -8.615980 -3.316520 0.489464 12.994200 -0.242716 4.980390 -91.319300 6.616030 -78.696400 5.348090 -0.000007 -0.000001 -51.084400 35.133700 -35.059800 24.328600 0.000019 0.000005 10.981000 18.012500 -32.107500 22.291600 -0.000001 0.000005 9.680860 5.275780 0.741301 12.994500 -0.242716 -4.980390 89.177800 10.599500 -85.538900 -5.348130 -0.000001 -0.000004 -53.925300 35.724700 -27.651900 -24.328900 0.000322 -0.000009 1.664620 4.202630 -21.643600 -22.291500 -0.000108 -0.000004 16.368800 5.396750 -2.832020 -2.192480 -6.469440 -0.000000 -174.408000 -10.495600 -2.442980 39.081100 -0.000007 -0.000012 -0.184355 0.271504 34.177400 40.985400 -0.000006 -0.000013 0.250488 5.435870 -69.108200 11.754300 -0.000000 0.000003 -0.000069 -0.000747 -16.606400 -2.192510 6.469440 -0.000001 174.973000 18.390700 178.535000 -39.081100 -0.002282 -0.040193 -0.165094 0.253184 33.627300 -40.985400 0.000008 0.000006 4.129640 12.201200 -69.639100 -11.754300 -0.000006 -0.000006 -0.003674 -0.048007 -18.525700
